<svg width="109" height="73" viewBox="0 0 109 73" fill="none" xmlns="http://www.w3.org/2000/svg">
<path d="M106.954 33.8802L87.0506 4.02514C86.2251 2.78698 85.1067 1.77176 83.7946 1.06959C82.4826 0.367423 81.0175 2.35371e-05 79.5293 0H28.9426C27.4545 4.76622e-06 25.9894 0.367397 24.6774 1.06957C23.3654 1.77174 22.247 2.78697 21.4215 4.02514L1.51823 33.8802C0.528251 35.365 -2.17946e-05 37.1096 6.74391e-10 38.8942L6.74393e-10 63.2753C6.74393e-10 68.2677 4.04698 72.3146 9.03933 72.3146H99.4326C104.425 72.3146 108.472 68.2677 108.472 63.2753V38.8942C108.472 37.1096 107.944 35.365 106.954 33.8802ZM30.5552 12.0524H77.917L93.9868 36.1573H70.8081L64.7819 48.2098H43.6901L37.6639 36.1573H14.4852L30.5552 12.0524Z" fill="black"/>
</svg>
